<svg xmlns="http://www.w3.org/2000/svg" viewBox="0 0 524 250" preserveAspectRatio="xMidYMid meet">
    <g transform="translate(0.000000,250.000000) scale(0.100000,-0.100000)"
       fill="#0054a0" stroke="none">
        <path d="M1676 2485 c-21 -7 -55 -27 -75 -43 -20 -16 -163 -196 -319 -401
l-283 -371 -285 375 c-157 206 -299 385 -317 398 -90 67 -222 63 -306 -10 -57
-48 -85 -113 -85 -195 0 -56 4 -73 30 -115 17 -26 169 -230 338 -452 175 -231
305 -410 302 -418 -3 -7 -147 -199 -319 -426 -173 -227 -322 -428 -333 -447
-27 -51 -26 -162 3 -216 25 -47 82 -101 129 -120 53 -22 141 -18 200 10 59 28
52 19 398 474 131 172 242 312 246 310 4 -2 126 -158 269 -348 288 -380 321
-418 384 -449 40 -19 60 -21 270 -21 248 0 270 4 319 56 15 16 37 52 50 79
l23 50 0 600 c0 650 -2 626 56 711 35 52 94 91 167 109 126 33 260 -29 325
-150 22 -39 22 -48 27 -670 l5 -630 28 -48 c33 -55 93 -102 150 -118 24 -6
101 -9 186 -7 127 3 151 6 187 25 70 37 104 88 178 269 38 93 85 206 104 252
l34 82 406 -2 407 -3 100 -242 c55 -133 110 -256 122 -272 13 -17 44 -43 70
-58 40 -23 59 -28 118 -28 59 0 79 5 123 29 90 50 140 141 129 236 -8 70 -836
2074 -876 2122 -99 118 -309 111 -397 -13 -11 -16 -144 -327 -295 -692 l-274
-664 -5 636 -5 636 -30 53 c-32 59 -87 103 -150 121 -64 18 -1478 14 -1529 -4z
m1036 -21 c61 -20 141 -92 176 -158 24 -46 27 -62 27 -151 0 -89 -3 -106 -27
-150 -28 -53 -96 -123 -145 -148 -15 -8 -54 -20 -86 -26 -130 -24 -254 34
-325 152 -116 193 -6 452 211 497 50 10 105 5 169 -16z m-892 -1206 c0 -649 0
-662 -19 -643 -10 11 -125 160 -255 332 l-236 312 252 330 c138 182 253 331
255 331 2 0 3 -298 3 -662z m2485 24 c59 -144 106 -265 103 -267 -3 -3 -113
-4 -246 -3 l-241 3 118 286 c65 157 121 291 126 299 5 9 11 2 19 -21 7 -19 61
-152 121 -297z"/>
    </g>
</svg>
